<svg width="298" height="148" viewBox="0 0 298 148" fill="none" xmlns="http://www.w3.org/2000/svg">
<path fill-rule="evenodd" clip-rule="evenodd" d="M164.613 44.7332L173.946 41.5332L167.813 50.4665C166.88 50.4665 147.146 58.0665 123.946 67.2665L81.5464 84.1998L81.0131 93.1332C79.2798 124.2 42.0798 153 11.2798 147.266C1.54644 145.4 -2.72023 136.866 1.81311 128.066C6.34644 119.266 29.8131 101.933 54.3464 89.1332C61.5464 85.2665 65.2798 82.5998 65.2798 81.1332C65.2798 76.7332 61.4131 67.7998 54.7464 56.8665C46.2131 42.8665 44.3464 35.1332 47.2798 26.4665C51.1464 14.8665 68.6131 1.93317 82.4798 0.199829C90.8798 -0.733505 98.3464 1.66649 100.346 6.06648C101.68 8.99982 101.413 9.79982 98.7464 11.9332C97.0131 13.3998 93.5464 14.4665 90.7464 14.4665C83.9464 14.4665 73.4131 19.7998 68.0798 25.7998C64.0798 30.4665 63.6798 31.5332 64.2131 37.6665C64.6131 42.5998 66.3464 47.1332 70.3464 53.7998C73.4131 58.9998 76.8798 66.0665 78.0798 69.5332C79.2798 72.9998 81.0131 75.7998 82.0798 75.7998C83.1464 75.7998 99.9464 69.5332 119.546 61.9332C139.28 54.3332 159.546 46.5998 164.613 44.7332ZM64.7464 96.0665C61.9464 110.733 46.2131 130.466 32.0798 137.533C22.4798 142.2 11.8131 142.6 8.74644 138.2C6.87977 135.533 7.01311 134.866 9.67977 130.066C13.6798 122.733 38.3464 104.866 59.5464 93.7998C65.0131 90.9998 65.6798 91.2665 64.7464 96.0665Z" fill="black"/>
<path d="M297.969 45.8C290.636 38.4667 289.969 35.2667 293.436 25.4C298.236 11.5334 298.369 7.26669 294.502 3.40002C290.236 -0.866645 289.436 -0.866645 284.502 3.26669C279.436 7.53335 277.036 16.2 277.969 27C278.759 35.1623 278.639 35.3954 269.78 52.5982L269.436 53.2667C264.236 63.1334 256.236 77 251.569 83.9334C243.036 96.8667 231.302 109.267 227.702 109.267C221.436 109.267 221.702 93.9334 228.369 74.3334C230.769 67.4 232.369 60.7334 231.836 59.5334C230.769 56.7334 224.769 55.2667 220.369 56.7334C218.502 57.4 213.302 62.8667 208.369 69.2667C199.036 81.5334 180.902 100.067 174.369 104.067C155.969 115.267 157.702 89.9334 178.236 47.2667C186.636 29.6667 186.902 28.8667 184.902 25.6667C181.836 21.1334 176.902 19.5334 172.502 21.5334C168.102 23.6667 158.369 42.4667 152.102 61.1334C148.769 71.2667 147.702 76.7334 147.302 87.9334C146.636 101 146.902 102.2 149.836 106.6C153.569 112.067 157.969 114.6 164.102 114.6C172.236 114.6 180.236 109.4 194.369 95.1334L207.969 81.5334L207.169 89.9334C206.902 94.6 206.902 100.467 207.436 103.133C209.569 114.067 220.769 120.6 230.502 116.6C240.636 112.333 256.636 93.2667 271.969 67.2667C280.596 52.6413 283.047 47.6363 285.778 47.4776C287.479 47.3787 289.29 49.1594 292.769 51.6667C292.992 51.8246 293.214 51.9803 293.436 52.1338L297.969 45.8Z" fill="black"/>
</svg>
