<svg width="1668" height="394" viewBox="0 0 1668 394" fill="none" xmlns="http://www.w3.org/2000/svg">
<path d="M547.946 0.216842C520.613 4.75018 482.213 35.2835 440.08 85.9502L426.213 102.617L414.746 103.417C401.28 104.484 299.946 104.884 299.946 103.95C299.946 103.55 307.28 94.2168 316.346 83.1502C338.613 55.4168 339.946 53.6835 339.946 51.8168C339.946 49.5502 334.746 45.9502 331.546 45.9502C327.546 45.9502 315.013 60.0835 284.48 98.7502L280.08 104.217L224.346 105.017C149.013 106.217 121.546 108.35 86.6131 115.284C60.8798 120.484 24.7464 134.617 23.0131 140.084C21.8131 143.817 27.9464 142.884 41.8131 137.284C68.8798 126.484 98.3464 120.217 141.946 115.95C164.08 113.817 243.146 110.884 262.08 111.55L274.213 111.95L259.146 133.15C232.88 169.95 206.08 213.55 183.013 257.15L173.946 274.35L164.613 277.55C159.546 279.417 139.28 287.15 119.546 294.75C99.9464 302.35 83.1464 308.617 82.0798 308.617C81.0131 308.617 79.2798 305.817 78.0798 302.35C76.8798 298.884 73.4131 291.817 70.3464 286.617C66.3464 279.95 64.6131 275.417 64.2131 270.484C63.6798 264.35 64.0798 263.284 68.0798 258.617C73.4131 252.617 83.9464 247.284 90.7464 247.284C93.5464 247.284 97.0131 246.217 98.7464 244.75C101.413 242.617 101.68 241.817 100.346 238.884C98.3464 234.484 90.8798 232.084 82.4798 233.017C68.6131 234.75 51.1464 247.684 47.2798 259.284C44.3464 267.95 46.2131 275.684 54.7464 289.684C61.4131 300.617 65.2798 309.55 65.2798 313.95C65.2798 315.417 61.5464 318.084 54.3464 321.95C29.8131 334.75 6.34644 352.084 1.81311 360.884C-2.72023 369.684 1.54644 378.217 11.2798 380.084C42.0798 385.817 79.2798 357.017 81.0131 325.95L81.5464 317.017L123.946 300.084C147.146 290.884 166.88 283.284 167.813 283.284C170.08 283.284 169.68 285.017 164.08 298.35C147.546 338.084 144.88 369.15 156.746 383.017C165.813 393.684 182.08 395.55 197.68 387.95C204.88 384.35 211.813 378.617 210.48 377.284C210.08 377.017 205.013 378.484 199.146 380.75C186.08 385.817 175.813 385.817 171.813 380.484C165.946 372.75 166.746 351.017 173.946 328.484C189.28 280.884 227.413 208.35 270.346 145.284C279.28 132.084 288.613 119.017 291.013 116.35L295.28 111.417L357.68 111.017C417.146 110.484 419.813 110.484 418.346 112.75C408.346 126.884 386.346 160.35 379.28 171.95C362.08 200.484 338.613 250.084 330.613 274.35C327.413 284.217 326.346 285.55 307.28 303.15C283.146 325.55 267.813 337.417 254.746 343.95C246.08 348.35 242.88 348.217 241.146 343.55C238.08 335.55 244.613 317.817 259.013 295.284C263.946 287.684 267.946 280.35 267.946 279.15C267.946 274.75 256.746 270.884 252.346 273.684C249.946 275.15 240.213 290.617 234.613 301.95C225.413 320.217 223.146 333.817 227.413 344.484C229.013 348.617 230.88 350.484 235.413 352.617C240.613 355.15 241.946 355.284 248.613 353.95C260.346 351.55 286.213 332.884 314.48 306.617L323.013 298.617L322.08 304.617C321.546 307.95 320.613 313.55 319.946 317.284C317.813 329.55 318.346 348.884 321.28 358.217C324.48 368.884 332.213 377.95 341.813 382.884C347.28 385.684 351.013 386.484 361.413 387.017C377.946 387.817 390.346 385.15 406.88 377.15C437.28 362.35 456.613 348.217 516.08 297.284C522.88 291.417 527.946 287.817 527.413 289.284C523.546 299.284 521.013 315.017 520.346 332.084C519.68 349.017 519.946 351.817 522.48 359.684C526.213 370.75 533.546 379.284 543.68 384.217C550.746 387.684 552.346 387.95 567.946 387.95C583.413 387.817 585.413 387.55 595.28 383.55C627.413 370.75 658.346 347.55 719.68 290.217C736.08 274.75 739.813 269.95 735.546 269.95C733.546 269.95 720.08 280.484 709.28 290.484C693.813 304.75 655.013 337.684 642.88 346.884C618.08 365.417 596.746 376.35 577.28 380.35C568.48 382.217 565.546 382.217 559.013 380.884C549.413 378.884 545.546 376.084 541.28 367.95C538.613 362.484 537.946 359.15 537.546 347.55C536.88 330.75 540.213 311.95 548.48 287.284C553.946 270.617 553.946 270.617 560.613 266.35C645.546 212.484 727.146 125.684 757.013 57.2835C768.88 30.0835 770.613 13.1502 762.613 4.21684C759.28 0.483508 758.346 0.0835082 750.48 0.216842C740.08 0.350175 730.88 3.81684 718.346 12.2168C681.546 37.0168 633.813 92.0835 590.346 160.617C566.346 198.217 551.68 225.417 537.946 257.684C530.613 275.017 531.813 273.684 491.28 308.084C427.413 362.084 395.013 380.617 364.746 380.617C349.146 380.617 341.813 374.884 337.946 359.95C334.08 345.017 336.08 324.35 343.946 296.884C346.213 289.417 347.946 283.017 347.946 282.75C347.946 282.484 356.746 275.15 367.68 266.484C430.746 215.95 489.146 159.15 523.68 114.35C530.613 105.417 531.546 104.617 537.146 103.817C552.08 101.817 570.746 96.3502 569.013 94.4835C568.613 94.0835 561.546 94.7502 553.413 96.0835C545.28 97.2835 538.213 97.9502 537.68 97.5502C537.28 97.0168 538.88 93.5502 541.28 89.6835C560.346 59.5502 569.28 37.1502 569.28 19.5502C569.28 10.7502 566.88 4.21684 562.88 2.21684C559.813 0.483508 552.08 -0.449825 547.946 0.216842ZM756.08 10.0835C758.613 12.6168 758.88 13.9502 758.213 21.8168C754.48 66.6168 689.946 154.617 615.413 216.484C598.88 230.217 563.546 256.617 561.68 256.617C559.813 256.617 559.946 255.95 567.68 238.484C586.346 196.35 611.28 155.417 650.48 102.617C687.413 53.1502 724.213 16.0835 743.413 9.28351C750.613 6.75018 752.88 6.88351 756.08 10.0835ZM557.146 10.4835C564.613 19.4168 554.213 48.4835 530.88 84.0835L520.346 100.217L513.146 101.017C509.146 101.55 491.946 102.35 474.746 102.884C448.08 103.55 443.68 103.417 444.613 101.817C449.146 94.3502 473.946 65.0168 487.68 51.0168C506.746 31.5502 519.413 21.4168 533.946 13.8168C544.88 8.21684 554.213 6.88351 557.146 10.4835ZM514.613 108.217C514.613 110.084 491.68 138.35 477.013 154.75C449.946 185.15 405.68 226.617 373.28 251.95C367.813 256.217 361.28 261.55 359.013 263.817C356.613 265.95 354.346 267.417 353.946 267.017C353.146 266.35 359.28 249.817 367.013 231.817C374.613 214.217 391.146 181.95 401.946 163.817C412.08 146.884 432.746 115.95 436.746 112.084C438.346 110.35 442.48 109.95 458.346 109.817C475.146 109.684 510.48 108.217 513.68 107.55C514.213 107.417 514.613 107.684 514.613 108.217ZM64.7464 328.884C61.9464 343.55 46.2131 363.284 32.0798 370.35C22.4798 375.017 11.8131 375.417 8.74644 371.017C6.87977 368.35 7.01311 367.684 9.67977 362.884C13.6798 355.55 38.3464 337.684 59.5464 326.617C65.0131 323.817 65.6798 324.084 64.7464 328.884Z" fill="black"/>
<path d="M1533.15 14.8824C1525.01 19.0157 1519.68 23.4157 1503.15 39.9491C1481.55 61.4157 1469.15 76.7491 1447.55 108.882C1424.35 143.416 1405.95 175.549 1384.08 219.549L1363.15 261.816L1356.61 257.816C1349.15 253.549 1344.48 253.149 1332.75 255.949C1322.61 258.349 1314.61 262.482 1301.68 272.082C1292.48 279.016 1265.28 292.482 1217.28 314.216C1213.95 315.816 1205.81 320.482 1199.15 324.749C1192.48 329.149 1186.61 332.616 1186.21 332.616C1183.95 332.616 1185.81 325.549 1191.28 312.749C1198.48 296.082 1199.41 290.882 1196.21 284.616C1194.35 280.749 1192.75 279.682 1187.41 278.349C1183.95 277.416 1180.61 276.482 1180.21 276.082C1179.81 275.682 1181.15 273.016 1183.15 270.216C1187.28 264.216 1187.55 260.482 1184.08 257.416C1178.48 252.349 1164.75 253.682 1164.35 259.282C1163.68 268.349 1151.68 281.949 1139.28 287.949C1132.48 291.282 1129.28 291.949 1117.68 292.349C1108.75 292.749 1103.95 292.482 1103.95 291.549C1103.95 290.749 1104.88 286.349 1106.08 281.682C1108.88 271.149 1107.95 257.816 1104.35 252.749C1102.88 250.882 1099.55 248.082 1097.01 246.616C1092.35 244.082 1091.95 244.082 1081.68 246.482C1072.75 248.616 1070.48 249.682 1065.95 254.482C1060.48 260.082 1057.28 267.682 1057.28 275.016C1057.28 279.949 1053.15 283.549 1044.21 286.482C1026.61 292.082 1011.55 289.682 1001.68 279.816C994.346 272.482 993.68 269.282 997.146 259.416C1001.95 245.549 1002.08 241.282 998.213 237.416C993.946 233.149 993.146 233.149 988.213 237.282C983.146 241.549 980.746 250.216 981.68 261.016C982.48 269.282 982.346 269.416 973.146 287.282C967.946 297.149 959.946 311.016 955.28 317.949C946.746 330.882 935.013 343.282 931.413 343.282C925.146 343.282 925.413 327.949 932.08 308.349C934.48 301.416 936.08 294.749 935.546 293.549C934.48 290.749 928.48 289.282 924.08 290.749C922.213 291.416 917.013 296.882 912.08 303.282C902.746 315.549 884.613 334.082 878.08 338.082C859.68 349.282 861.413 323.949 881.946 281.282C890.346 263.682 890.613 262.882 888.613 259.682C885.546 255.149 880.613 253.549 876.213 255.549C871.813 257.682 862.08 276.482 855.813 295.149C852.48 305.282 851.413 310.749 851.013 321.949C850.346 335.016 850.613 336.216 853.546 340.616C857.28 346.082 861.68 348.616 867.813 348.616C875.946 348.616 883.946 343.416 898.08 329.149L911.68 315.549L910.88 323.949C910.613 328.616 910.613 334.482 911.146 337.149C913.28 348.082 924.48 354.616 934.213 350.616C944.346 346.349 960.346 327.282 975.68 301.282C989.68 277.549 987.413 279.149 996.48 285.682C1007.01 293.149 1016.35 295.682 1030.61 294.882C1036.88 294.616 1043.01 293.816 1044.35 293.282C1046.48 292.349 1046.35 293.149 1043.41 299.016C1036.48 312.616 1034.21 328.482 1037.81 337.016C1040.61 343.682 1044.48 346.349 1052.35 347.016C1058.61 347.549 1059.95 347.016 1065.95 343.016C1074.35 337.149 1086.48 322.882 1094.21 309.816L1100.08 299.549L1117.01 299.016C1136.35 298.349 1145.55 295.816 1159.55 287.282C1166.88 282.882 1168.75 282.349 1173.68 282.882C1181.15 283.949 1184.35 285.682 1183.55 288.349C1183.15 289.682 1180.08 297.282 1176.75 305.416C1170.21 321.282 1167.81 334.082 1170.48 339.016C1172.75 343.282 1179.41 346.349 1184.08 345.282C1186.21 344.749 1192.75 340.349 1198.61 335.416C1204.35 330.482 1214.08 323.816 1220.21 320.482C1234.21 312.749 1279.81 292.082 1280.88 293.016C1281.28 293.416 1280.08 295.816 1278.21 298.216C1271.55 307.016 1266.35 319.549 1265.55 328.216C1265.01 336.082 1265.15 336.616 1269.01 340.482C1272.21 343.816 1274.21 344.616 1278.61 344.616C1290.61 344.616 1303.15 335.816 1335.55 304.482C1343.01 297.149 1349.68 291.282 1350.35 291.282C1351.01 291.282 1349.41 296.482 1346.61 302.882C1340.08 318.349 1334.48 339.949 1333.68 353.416C1332.35 373.282 1339.15 386.349 1353.95 391.949C1359.41 394.082 1361.55 394.216 1369.95 393.016C1395.01 389.416 1425.28 368.482 1495.95 305.416C1501.41 300.482 1507.55 295.282 1509.55 293.816L1513.15 291.149L1517.15 298.882C1519.28 303.282 1521.28 309.416 1521.55 312.616L1521.95 318.616L1507.95 325.816C1490.21 334.749 1465.68 351.016 1460.21 357.282C1455.55 362.482 1454.21 366.349 1454.88 371.949C1455.55 377.816 1461.15 381.016 1471.55 381.682C1489.55 382.882 1505.55 376.349 1520.35 361.816C1530.75 351.549 1538.21 337.549 1539.01 326.749L1539.55 320.216L1560.75 313.016C1572.35 309.149 1601.15 299.682 1624.61 291.949C1664.48 279.016 1672.21 275.549 1665.01 274.216C1661.15 273.416 1628.75 283.016 1584.75 298.082C1561.28 306.082 1541.28 312.616 1540.48 312.616C1539.68 312.616 1538.21 310.082 1537.28 306.882C1536.48 303.682 1532.21 294.882 1527.81 287.149C1518.21 270.349 1517.55 264.749 1524.08 257.416C1528.48 252.349 1537.81 248.216 1548.21 246.749C1556.88 245.416 1559.01 241.816 1554.08 236.882C1548.88 231.682 1537.28 231.149 1527.41 235.682C1516.75 240.616 1510.88 245.416 1506.48 253.149C1501.81 261.416 1501.68 266.749 1505.95 277.149C1507.68 281.549 1509.01 285.149 1508.88 285.282C1508.61 285.416 1490.61 300.749 1457.28 329.416C1413.95 366.482 1383.15 385.816 1367.01 385.949C1358.88 385.949 1353.55 380.882 1352.21 371.949C1349.55 355.149 1354.35 332.882 1368.08 298.616C1381.28 265.682 1381.01 265.949 1401.28 247.949C1467.28 189.282 1521.41 124.616 1545.81 75.1491C1557.28 51.9491 1560.61 41.2824 1560.61 27.5491C1560.61 17.0157 1560.48 16.2157 1556.88 13.1491C1551.41 8.4824 1544.88 8.8824 1533.15 14.8824ZM1551.68 19.5491C1556.08 23.9491 1552.21 41.2824 1542.21 63.2824C1529.95 89.8157 1509.01 120.882 1477.01 159.682C1463.28 176.349 1392.35 248.216 1391.01 246.882C1389.95 245.682 1409.01 206.082 1423.41 179.816C1457.55 117.016 1492.21 66.0824 1519.41 38.4824C1530.75 27.0157 1543.28 17.9491 1548.08 17.9491C1549.15 17.9491 1550.75 18.6157 1551.68 19.5491ZM1096.08 257.549C1097.68 261.682 1096.88 277.149 1094.61 284.882C1092.75 291.149 1089.95 291.416 1080.61 286.216C1074.88 283.016 1073.95 281.949 1074.21 278.749C1074.75 271.682 1087.55 253.949 1092.21 253.949C1093.68 253.949 1095.28 255.416 1096.08 257.549ZM1357.15 273.549C1354.21 277.549 1317.68 312.082 1305.95 321.949C1291.81 333.682 1287.68 336.482 1282.75 337.416C1279.41 338.082 1278.61 337.816 1278.61 335.949C1278.61 331.549 1286.88 316.882 1295.41 306.216C1313.01 284.216 1330.48 272.216 1347.95 270.216C1357.55 269.016 1359.81 269.816 1357.15 273.549ZM1081.68 294.616C1085.81 295.816 1089.28 297.149 1089.28 297.682C1089.28 298.082 1087.15 302.349 1084.48 307.149C1074.61 325.016 1056.21 343.949 1053.15 339.149C1051.55 336.482 1051.68 331.816 1053.95 322.616C1055.95 314.082 1062.75 296.616 1066.08 291.682C1067.81 288.882 1068.35 288.749 1071.01 290.482C1072.61 291.416 1077.41 293.282 1081.68 294.616ZM1520.75 333.282C1514.35 354.482 1490.75 375.282 1473.15 375.282C1464.48 375.282 1462.61 374.349 1462.61 369.816C1462.61 364.749 1467.81 359.016 1481.01 349.549C1491.55 341.949 1517.68 327.416 1520.88 327.282C1522.08 327.282 1522.08 328.749 1520.75 333.282Z" fill="black"/>
<path d="M278.48 222.616C272.747 225.816 270.08 235.95 274.08 239.816C281.013 246.883 296.48 232.216 290.347 224.35C287.813 221.15 282.48 220.35 278.48 222.616Z" fill="black"/>
</svg>
